<?xml version="1.0" encoding="UTF-8" standalone="no"?>
<!-- Created with Inkscape (http://www.inkscape.org/) -->

<svg
   xmlns:dc="http://purl.org/dc/elements/1.1/"
   xmlns:cc="http://creativecommons.org/ns#"
   xmlns:rdf="http://www.w3.org/1999/02/22-rdf-syntax-ns#"
   xmlns:svg="http://www.w3.org/2000/svg"
   xmlns="http://www.w3.org/2000/svg"
   xmlns:xlink="http://www.w3.org/1999/xlink"
   xmlns:sodipodi="http://sodipodi.sourceforge.net/DTD/sodipodi-0.dtd"
   xmlns:inkscape="http://www.inkscape.org/namespaces/inkscape"
   width="210mm"
   height="297mm"
   viewBox="0 0 210 297"
   id="svg2"
   version="1.1"
   inkscape:version="0.91+devel+osxmenu r12922"
   sodipodi:docname="djtrump.svg">
  <defs
     id="defs4" />
  <sodipodi:namedview
     id="base"
     pagecolor="#ffffff"
     bordercolor="#666666"
     borderopacity="1.0"
     inkscape:pageopacity="0.0"
     inkscape:pageshadow="2"
     inkscape:zoom="0.087500002"
     inkscape:cx="5057.5172"
     inkscape:cy="907.85389"
     inkscape:document-units="mm"
     inkscape:current-layer="layer2"
     showgrid="false"
     inkscape:window-width="1676"
     inkscape:window-height="1005"
     inkscape:window-x="4"
     inkscape:window-y="23"
     inkscape:window-maximized="0" />
  <metadata
     id="metadata7">
    <rdf:RDF>
      <cc:Work
         rdf:about="">
        <dc:format>image/svg+xml</dc:format>
        <dc:type
           rdf:resource="http://purl.org/dc/dcmitype/StillImage" />
        <dc:title />
      </cc:Work>
    </rdf:RDF>
  </metadata>
  <g
     inkscape:label="Calque 1"
     inkscape:groupmode="layer"
     id="layer1"
     sodipodi:insensitive="true">
    <image
       sodipodi:absref="/Volumes/Work/Users/cbb/Downloads/GI_Joe_Logo.png"
       xlink:href="/Volumes/Work/Users/cbb/Downloads/GI_Joe_Logo.png"
       width="1428.75"
       height="470.95834"
       preserveAspectRatio="none"
       id="image3344"
       x="-540.50598"
       y="-14.830362" />
  </g>
  <g
     inkscape:groupmode="layer"
     id="layer2"
     inkscape:label="Calque 2">
    <g
       id="g4225"
       transform="translate(858.76188,-405.19047)"
       inkscape:export-xdpi="2.2659552"
       inkscape:export-ydpi="2.2659552">
      <path
         inkscape:connector-curvature="0"
         id="path4169"
         d="m -52.011504,-317.09195 78.778204,0 52.55858,-59.08365 11.41886,59.08365 78.77819,0 -73.52631,42.96993 6.20676,90.71428 -67.83677,-59.40194 -109.772254,58.84493 62.206924,-91.49014 z"
         style="fill:#000000;fill-opacity:1;fill-rule:evenodd;stroke:#000000;stroke-width:38;stroke-miterlimit:4;stroke-dasharray:none;stroke-opacity:1"
         sodipodi:nodetypes="ccccccccccc" />
      <path
         style="fill:#000000;fill-rule:evenodd;stroke:#000000;stroke-width:38;stroke-miterlimit:4;stroke-dasharray:none;stroke-opacity:1"
         d="m 195.79167,-334.59825 -85.04464,233.21132 -57.83035,43.84522 -80.50893,0 -23.812504,-43.08928 41.955364,-108.10119 66.90178,0 -33.63988,89.95834 20.41072,0 84.28869,-216.20239 z"
         id="path4171"
         inkscape:connector-curvature="0" />
      <path
         style="fill:#000000;fill-rule:evenodd;stroke:#000000;stroke-width:38;stroke-miterlimit:4;stroke-dasharray:none;stroke-opacity:1"
         d="m -154.32504,-334.97623 -107.34486,276.67872 120.19628,0 65.012046,-47.625 74.083344,-194.27961 -25.70284,-34.77411 -126.24397,0 z m 46.49122,58.96436 24.568526,0 -60.476406,158.37224 -24.19026,0 60.09814,-158.37224 z"
         id="path4173"
         inkscape:connector-curvature="0" />
      <path
         style="fill:#000000;fill-opacity:1;fill-rule:evenodd;stroke:#000000;stroke-width:38;stroke-linecap:butt;stroke-linejoin:miter;stroke-miterlimit:4;stroke-dasharray:none;stroke-opacity:1"
         d="m -73.327374,-80.97619 -9.82738,23.8125 20.41071,0 9.82738,-23.43451 z"
         id="path4177"
         inkscape:connector-curvature="0" />
      <path
         inkscape:connector-curvature="0"
         id="path4179"
         d="m 103.07052,-80.97619 -9.82738,23.8125 20.41071,0 9.82738,-23.43451 z"
         style="fill:#000000;fill-opacity:1;fill-rule:evenodd;stroke:#000000;stroke-width:38;stroke-linecap:butt;stroke-linejoin:miter;stroke-miterlimit:4;stroke-dasharray:none;stroke-opacity:1" />
      <path
         style="fill:#000000;fill-rule:evenodd;stroke:#000000;stroke-width:38;stroke-miterlimit:4;stroke-dasharray:none;stroke-opacity:1"
         d="m 382.19553,-334.97623 -157.68913,1.06919 -31.53759,79.11145 43.30692,0 -78.58695,197.2448 70.02466,0 78.19781,-197.2448 43.67745,0 32.60683,-80.18064 z"
         id="path4181"
         inkscape:connector-curvature="0" />
      <path
         style="fill:#000000;fill-rule:evenodd;stroke:#000000;stroke-width:38;stroke-miterlimit:4;stroke-dasharray:none;stroke-opacity:1"
         d="m 412.85423,-334.97623 -111.18389,279.56432 74.83519,0 44.5167,-113.67161 31.9226,-0.72037 -43.2976,114.39146 70.1673,0 52.7766,-138.44529 -7.2864,-9.58029 17.4424,-13.40487 6.5572,-17.10541 0.3922,0 23.5195,-63.07522 -28.8649,-37.95272 -131.4969,0 z m 80.7155,62.00655 -14.4327,39.02139 -32.7122,0 15.0724,-38.48654 32.0725,-0.53485 z"
         id="path4183"
         inkscape:connector-curvature="0" />
      <path
         style="fill:#000000;fill-rule:evenodd;stroke:#000000;stroke-width:38;stroke-miterlimit:4;stroke-dasharray:none;stroke-opacity:1"
         d="m 628.5744,-57.91968 -82.77677,0 -23.4345,-35.90774 94.11607,-241.14881 68.0357,0 -81.2649,217.33631 23.0566,0 83.5327,-216.95834 70.6815,0 -86.1785,229.80952 z"
         id="path4185"
         inkscape:connector-curvature="0"
         sodipodi:nodetypes="ccccccccccc" />
      <path
         style="fill:#000000;fill-rule:evenodd;stroke:#000000;stroke-width:38;stroke-miterlimit:4;stroke-dasharray:none;stroke-opacity:1"
         d="m 799.8567,-298.89485 -94.0788,242.14618 71.6282,-0.53454 57.7302,-149.67093 7.4836,11.22532 16.5707,-10.69078 -57.7302,149.13639 72.69726,0 91.9407,-242.14618 -26.1924,-35.54684 -26.727,0 -21.9161,13.0962 -8.0181,-13.0962 -28.33046,0 z"
         id="path4187"
         inkscape:connector-curvature="0"
         sodipodi:nodetypes="ccccccccccccccc" />
      <path
         inkscape:connector-curvature="0"
         id="path4189"
         d="m 1008.4725,-334.97623 -107.34494,276.67872 69.3257,-0.2199 41.86354,-104.39049 49.0725,0 65.012,-48.09199 34.0179,-89.20223 -25.7029,-34.77411 z m 46.4911,58.96436 24.5685,0 -16.6311,41.19962 -24.1902,0 z"
         style="fill:#000000;fill-rule:evenodd;stroke:#000000;stroke-width:38;stroke-miterlimit:4;stroke-dasharray:none;stroke-opacity:1"
         sodipodi:nodetypes="cccccccccccccc" />
      <path
         style="fill:#000000;fill-rule:evenodd;stroke:#000000;stroke-width:38;stroke-miterlimit:4;stroke-dasharray:none;stroke-opacity:1"
         d="m 1196.6154,-334.97623 -27.7961,77.50816 273.684,0 29.9342,-77.50816 z"
         id="path4191"
         inkscape:connector-curvature="0"
         sodipodi:nodetypes="ccccc" />
      <path
         sodipodi:nodetypes="ccccc"
         inkscape:connector-curvature="0"
         id="path4193"
         d="m 1158.2753,-235.39095 -27.7961,77.50816 273.684,0 29.9342,-77.50816 z"
         style="fill:#000000;fill-rule:evenodd;stroke:#000000;stroke-width:38;stroke-miterlimit:4;stroke-dasharray:none;stroke-opacity:1" />
      <path
         style="fill:#000000;fill-rule:evenodd;stroke:#000000;stroke-width:38;stroke-miterlimit:4;stroke-dasharray:none;stroke-opacity:1"
         d="m 1119.7597,-135.80567 -27.7961,77.50816 273.6841,0 29.9342,-77.50816 z"
         id="path4195"
         inkscape:connector-curvature="0"
         sodipodi:nodetypes="ccccc" />
      <path
         sodipodi:nodetypes="ccccccccccc"
         style="fill:#ffffff;fill-opacity:1;fill-rule:evenodd;stroke-width:1.26315784"
         d="m -52.01151,-317.09195 78.778193,0 52.558584,-59.08365 11.41886,59.08365 78.778193,0 -73.526314,42.96993 6.206764,90.71428 -67.836777,-59.40194 -109.772243,58.84493 62.20692,-91.49014 z"
         id="path4166"
         inkscape:connector-curvature="0" />
      <path
         inkscape:connector-curvature="0"
         id="path4160"
         d="m 195.79166,-334.59825 -85.04464,233.21132 -57.830354,43.845216 -80.508926,0 -23.8125,-43.089276 41.9553605,-108.10119 66.9017805,0 -33.639881,89.95834 20.410715,0 84.288695,-216.20239 z"
         style="fill:#ffffff;fill-rule:evenodd" />
      <path
         inkscape:connector-curvature="0"
         id="path3348"
         d="m -154.32505,-334.97623 -107.34486,276.678716 120.19628,0 65.01205,-47.624996 74.0833395,-194.27961 -25.7028395,-34.77411 -126.24397,0 z m 46.49122,58.96436 24.56853,0 -60.47641,158.37224 -24.19026,0 60.09814,-158.37224 z"
         style="fill:#ffffff;fill-rule:evenodd;stroke-width:0.26458332" />
      <path
         inkscape:connector-curvature="0"
         id="path4158"
         d="m -31.37202,-310.02976 62.366068,0 44.60119,-52.16072 6.047619,52.16072 62.366073,0 -58.208335,34.01786 4.913691,71.81547 -56.696429,-47.625 -83.910717,41.19941 52.5386945,-66.14584 z"
         style="fill:#00bbfa;fill-opacity:1;fill-rule:evenodd" />
      <path
         inkscape:connector-curvature="0"
         id="path4162"
         d="m -73.32738,-80.976194 -9.82738,23.8125 20.41071,0 9.82738,-23.43451 z"
         style="fill:#ffffff;fill-opacity:1;fill-rule:evenodd;stroke:none;stroke-width:0.26458332px;stroke-linecap:butt;stroke-linejoin:miter;stroke-opacity:1" />
      <path
         style="fill:#ffffff;fill-opacity:1;fill-rule:evenodd;stroke:none;stroke-width:0.26458332px;stroke-linecap:butt;stroke-linejoin:miter;stroke-opacity:1"
         d="m 103.07051,-80.976194 -9.827382,23.8125 20.410712,0 9.82738,-23.43451 z"
         id="path4164"
         inkscape:connector-curvature="0" />
      <path
         inkscape:connector-curvature="0"
         id="path4154"
         d="m 382.19549,-334.97623 -157.6891,1.06919 -31.53759,79.11145 43.30692,0 -78.58695,197.244802 70.02466,0 78.19781,-197.244802 43.67745,0 32.6068,-80.18064 z"
         style="fill:#ffffff;fill-rule:evenodd;stroke-width:1" />
      <path
         inkscape:connector-curvature="0"
         id="path4159"
         d="m 412.85425,-334.97623 -111.18392,279.564324 74.83523,0 44.51667,-113.671614 31.92259,-0.72037 -43.29761,114.391455 70.16729,0 52.77663,-138.445285 -7.28638,-9.58029 17.44234,-13.40487 6.55722,-17.10541 0.39223,0 23.51949,-63.07522 -28.8649,-37.95272 -131.49688,0 z m 80.71549,62.00655 -14.43271,39.02139 -32.71223,0 15.07246,-38.48654 32.07248,-0.53485 z"
         style="fill:#ffffff;fill-rule:evenodd;stroke-width:1" />
      <path
         sodipodi:nodetypes="ccccccccccc"
         inkscape:connector-curvature="0"
         id="path4168"
         d="m 628.5744,-57.91968 -82.77679,0 -23.43452,-35.90774 94.11607,-241.14881 68.03572,0 -81.26489,217.33631 23.05655,0 83.53274,-216.95834 70.68154,0 -86.17857,229.80952 z"
         style="fill:#ffffff;fill-rule:evenodd" />
      <path
         sodipodi:nodetypes="ccccccccccccccc"
         inkscape:connector-curvature="0"
         id="path4157"
         d="m 799.85672,-298.89485 -94.07887,242.146177 71.62823,-0.53454 57.73022,-149.670927 7.48354,11.22532 16.57071,-10.69078 -57.73021,149.136387 72.69731,0 91.94071,-242.146177 -26.19241,-35.54684 -26.72695,0 -21.91611,13.0962 -8.01808,-13.0962 -28.33057,0 z"
         style="fill:#ffffff;fill-rule:evenodd" />
      <path
         sodipodi:nodetypes="cccccccccccccc"
         style="fill:#ffffff;fill-rule:evenodd;stroke-width:0.26458332"
         d="m 1008.4725,-334.97623 -107.34487,276.678716 69.3257,-0.2199 41.86347,-104.390486 49.0725,0 65.012,-48.09199 34.0179,-89.20223 -25.7029,-34.77411 z m 46.4911,58.96436 24.5685,0 -16.6311,41.19962 -24.1902,0 z"
         id="path4161"
         inkscape:connector-curvature="0" />
      <path
         sodipodi:nodetypes="ccccc"
         inkscape:connector-curvature="0"
         id="path4163"
         d="m 1196.6154,-334.97623 -27.7961,77.50816 273.684,0 29.9342,-77.50816 z"
         style="fill:#ff0000;fill-rule:evenodd" />
      <path
         style="fill:#ffffff;fill-rule:evenodd"
         d="m 1158.2753,-235.39095 -27.7961,77.50816 273.684,0 29.9342,-77.50816 z"
         id="path4165"
         inkscape:connector-curvature="0"
         sodipodi:nodetypes="ccccc" />
      <path
         sodipodi:nodetypes="ccccc"
         inkscape:connector-curvature="0"
         id="path4167"
         d="m 1119.7597,-135.80567 -27.7961,77.508156 273.6841,0 29.9342,-77.508156 z"
         style="fill:#00bbfa;fill-opacity:1;fill-rule:evenodd" />
    </g>
  </g>
</svg>
