<?xml version="1.0" encoding="UTF-8" standalone="no"?>
<svg
   xmlns:dc="http://purl.org/dc/elements/1.1/"
   xmlns:cc="http://creativecommons.org/ns#"
   xmlns:rdf="http://www.w3.org/1999/02/22-rdf-syntax-ns#"
   xmlns:svg="http://www.w3.org/2000/svg"
   xmlns="http://www.w3.org/2000/svg"
   viewBox="0 0 971.94666 665.84003"
   height="665.84003"
   width="971.94666"
   xml:space="preserve"
   id="svg2"
   version="1.1"><metadata
     id="metadata8"><rdf:RDF><cc:Work
         rdf:about=""><dc:format>image/svg+xml</dc:format><dc:type
           rdf:resource="http://purl.org/dc/dcmitype/StillImage" /></cc:Work></rdf:RDF></metadata><defs
     id="defs6"><clipPath
       id="clipPath20"
       clipPathUnits="userSpaceOnUse"><path
         id="path18"
         d="m 4723.32,4153.12 c 26.43,-38.8 56.36,-83.47 89.68,-116.88 51.65,-51.81 69.41,-5.78 102.61,39.51 92.64,126.41 84.26,243.89 146.11,339.76 45.32,70.31 190.28,154.95 265.04,58.97 -26.04,96.91 -38.59,234.77 -164.58,243.56 C 5017,4728.15 4921.95,4600.21 4869.08,4483.67 4816.23,4367.2 4777.39,4254.42 4726.7,4140" /></clipPath><linearGradient
       id="linearGradient30"
       spreadMethod="pad"
       gradientTransform="matrix(511.378,426.127,426.127,-511.378,4763.41,4198.63)"
       gradientUnits="userSpaceOnUse"
       y2="0"
       x2="1"
       y1="0"
       x1="0"><stop
         id="stop22"
         offset="0"
         style="stop-opacity:1;stop-color:#3e1416" /><stop
         id="stop24"
         offset="0.693548"
         style="stop-opacity:1;stop-color:#ed1e24" /><stop
         id="stop26"
         offset="0.994624"
         style="stop-opacity:1;stop-color:#80171b" /><stop
         id="stop28"
         offset="1"
         style="stop-opacity:1;stop-color:#80171b" /></linearGradient><clipPath
       id="clipPath40"
       clipPathUnits="userSpaceOnUse"><path
         id="path38"
         d="m 5033.54,3900.6 c 88.49,12.15 108.64,182.9 134.82,260.02 23.85,70.33 89.37,134.05 144.28,164.43 59.23,32.8 72.54,-41.94 101.55,-95.14 17.42,-31.89 35.2,-69.84 53.68,-101.16 -91.69,-18.35 -139.15,-46.72 -171.83,-135.89 -25.71,-70.13 -22.98,-184.82 -79.09,-236.17 -49.1,25.46 -151.8,105.89 -182.01,143.1" /></clipPath><linearGradient
       id="linearGradient50"
       spreadMethod="pad"
       gradientTransform="matrix(334.605,340.721,340.721,-334.605,5105.25,3887.48)"
       gradientUnits="userSpaceOnUse"
       y2="0"
       x2="1"
       y1="0"
       x1="0"><stop
         id="stop42"
         offset="0"
         style="stop-opacity:1;stop-color:#3e1416" /><stop
         id="stop44"
         offset="0.693548"
         style="stop-opacity:1;stop-color:#ed1e24" /><stop
         id="stop46"
         offset="0.994624"
         style="stop-opacity:1;stop-color:#80171b" /><stop
         id="stop48"
         offset="1"
         style="stop-opacity:1;stop-color:#80171b" /></linearGradient><clipPath
       id="clipPath60"
       clipPathUnits="userSpaceOnUse"><path
         id="path58"
         d="m 5378.34,3649.98 c 50.87,30.74 48.75,85.25 61.99,135.05 13.89,52.12 48.08,112.73 82.99,153.27 57.18,66.43 71.36,-7.62 108.65,-50.13 32.36,-36.96 54.38,-86.65 90.28,-120.7 -123.1,-33.55 -82.82,-178.62 -152.16,-250.06 -37.95,18.23 -183.43,119.13 -190.55,134.63" /></clipPath><linearGradient
       id="linearGradient70"
       spreadMethod="pad"
       gradientTransform="matrix(172.725,307.453,307.453,-172.725,5492.78,3629.32)"
       gradientUnits="userSpaceOnUse"
       y2="0"
       x2="1"
       y1="0"
       x1="0"><stop
         id="stop62"
         offset="0"
         style="stop-opacity:1;stop-color:#3e1416" /><stop
         id="stop64"
         offset="0.693548"
         style="stop-opacity:1;stop-color:#ed1e24" /><stop
         id="stop66"
         offset="0.994624"
         style="stop-opacity:1;stop-color:#80171b" /><stop
         id="stop68"
         offset="1"
         style="stop-opacity:1;stop-color:#80171b" /></linearGradient><clipPath
       id="clipPath80"
       clipPathUnits="userSpaceOnUse"><path
         id="path78"
         d="m 5750.3,3388.88 c -2.9,72.28 53.14,163.62 121.53,191.87 39.75,-74.29 108.25,-127.62 163.39,-188.61 -66.25,-13.07 -91.63,-76.55 -110.42,-136.78 -59.98,20.88 -128.43,98.07 -176.2,140.08" /></clipPath><linearGradient
       id="linearGradient90"
       spreadMethod="pad"
       gradientTransform="matrix(162.237,224.14,224.14,-162.237,5823.98,3328.66)"
       gradientUnits="userSpaceOnUse"
       y2="0"
       x2="1"
       y1="0"
       x1="0"><stop
         id="stop82"
         offset="0"
         style="stop-opacity:1;stop-color:#3e1416" /><stop
         id="stop84"
         offset="0.693548"
         style="stop-opacity:1;stop-color:#ed1e24" /><stop
         id="stop86"
         offset="0.994624"
         style="stop-opacity:1;stop-color:#80171b" /><stop
         id="stop88"
         offset="1"
         style="stop-opacity:1;stop-color:#80171b" /></linearGradient><clipPath
       id="clipPath100"
       clipPathUnits="userSpaceOnUse"><path
         id="path98"
         d="m 6094.21,3141.53 c 14.02,47.45 54.59,79.17 103.41,85.7 39.45,-55.83 122.63,-102.06 172.64,-164.99 -37.31,-3.73 -83.9,-32.66 -96.84,-72.78 -53.18,33.24 -160.79,99.84 -179.21,152.07" /></clipPath><linearGradient
       id="linearGradient110"
       spreadMethod="pad"
       gradientTransform="matrix(151.375,195.784,195.784,-151.375,6171.46,3029.91)"
       gradientUnits="userSpaceOnUse"
       y2="0"
       x2="1"
       y1="0"
       x1="0"><stop
         id="stop102"
         offset="0"
         style="stop-opacity:1;stop-color:#3e1416" /><stop
         id="stop104"
         offset="0.693548"
         style="stop-opacity:1;stop-color:#ed1e24" /><stop
         id="stop106"
         offset="0.994624"
         style="stop-opacity:1;stop-color:#80171b" /><stop
         id="stop108"
         offset="1"
         style="stop-opacity:1;stop-color:#80171b" /></linearGradient><clipPath
       id="clipPath120"
       clipPathUnits="userSpaceOnUse"><path
         id="path118"
         d="m 6439.09,2876.95 c 1.37,24.54 49.27,64.91 72.62,71.26 45.62,-42.66 110.16,-101.11 156.42,-131.18 -16.99,-18.29 -45.07,-48.24 -59.8,-70.13 -54.42,48.93 -120.64,84.65 -170.92,136.62" /></clipPath><linearGradient
       id="linearGradient130"
       spreadMethod="pad"
       gradientTransform="matrix(146.517,145.938,145.938,-146.517,6489.03,2784.71)"
       gradientUnits="userSpaceOnUse"
       y2="0"
       x2="1"
       y1="0"
       x1="0"><stop
         id="stop122"
         offset="0"
         style="stop-opacity:1;stop-color:#3e1416" /><stop
         id="stop124"
         offset="0.693548"
         style="stop-opacity:1;stop-color:#ed1e24" /><stop
         id="stop126"
         offset="0.994624"
         style="stop-opacity:1;stop-color:#80171b" /><stop
         id="stop128"
         offset="1"
         style="stop-opacity:1;stop-color:#80171b" /></linearGradient><clipPath
       id="clipPath148"
       clipPathUnits="userSpaceOnUse"><path
         id="path146"
         d="m 5391.33,2029.32 c 252.35,-11.3 378.4,271.33 487.32,450.77 132.41,218.12 279.12,386.63 521.14,461.84 -82.55,41.43 -156.66,132.92 -252.39,118.74 -136.09,-20.17 -241.6,-139.53 -312.45,-250.77 -79.82,-125.31 -150.94,-268.08 -250.03,-380.38 -74.54,-84.46 -171.27,-194.14 -275.49,-233.09 -26.23,-9.83 -53.75,-12.26 -80.41,-14.88 30.25,-39.01 82.07,-82.73 122.72,-108.15" /></clipPath><linearGradient
       id="linearGradient158"
       spreadMethod="pad"
       gradientTransform="matrix(1128.16,698.561,698.561,-1128.16,5275.91,2222.04)"
       gradientUnits="userSpaceOnUse"
       y2="0"
       x2="1"
       y1="0"
       x1="0"><stop
         id="stop150"
         offset="0"
         style="stop-opacity:1;stop-color:#3e1416" /><stop
         id="stop152"
         offset="0.693548"
         style="stop-opacity:1;stop-color:#ed1e24" /><stop
         id="stop154"
         offset="0.994624"
         style="stop-opacity:1;stop-color:#80171b" /><stop
         id="stop156"
         offset="1"
         style="stop-opacity:1;stop-color:#80171b" /></linearGradient><clipPath
       id="clipPath168"
       clipPathUnits="userSpaceOnUse"><path
         id="path166"
         d="m 5551.32,1928.37 c 92.82,-97.4 213.21,12.36 268.79,64.1 181.64,169.08 234.45,485.66 414.29,660.1 78.58,76.22 164.3,160.22 281.98,152.52 81.59,-5.36 171.62,-100.03 237.41,-148.46 -81.1,15.51 -167.89,-11.66 -236.95,-53.82 -105.66,-64.48 -423.83,-574.53 -452.36,-631.31 -49.69,-98.84 -218.01,-311.83 -357.36,-273.39 0,0 -65.94,38.12 -155.8,230.26 z" /></clipPath><linearGradient
       id="linearGradient178"
       spreadMethod="pad"
       gradientTransform="matrix(1163.22,711.802,711.802,-1163.22,5590.72,1930.05)"
       gradientUnits="userSpaceOnUse"
       y2="0"
       x2="1"
       y1="0"
       x1="0"><stop
         id="stop170"
         offset="0"
         style="stop-opacity:1;stop-color:#3e1416" /><stop
         id="stop172"
         offset="0.693548"
         style="stop-opacity:1;stop-color:#ed1e24" /><stop
         id="stop174"
         offset="0.994624"
         style="stop-opacity:1;stop-color:#80171b" /><stop
         id="stop176"
         offset="1"
         style="stop-opacity:1;stop-color:#80171b" /></linearGradient><clipPath
       id="clipPath188"
       clipPathUnits="userSpaceOnUse"><path
         id="path186"
         d="m 4998.44,2354.57 c 93.89,-33.18 215.13,51.16 279.55,110.68 104.28,96.36 202.91,230.32 285.97,343.37 123.37,167.9 289.8,344.52 511.67,359.47 -40.23,26.27 -85.34,43.82 -125.92,68.49 -51.92,31.55 -82.94,57.01 -143.5,44.19 -168.19,-35.55 -287.25,-166.66 -389.79,-296.84 -99.13,-125.86 -151.96,-267.97 -286.79,-364.43 -77.67,-55.57 -222.75,-121.91 -320.79,-101.61 24.85,-25.58 55.55,-43.72 80.45,-69.03 19.97,-20.26 32.31,-48.97 58.77,-61.77" /></clipPath><linearGradient
       id="linearGradient198"
       spreadMethod="pad"
       gradientTransform="matrix(1218.36,667.206,667.206,-1218.36,4856.2,2497.97)"
       gradientUnits="userSpaceOnUse"
       y2="0"
       x2="1"
       y1="0"
       x1="0"><stop
         id="stop190"
         offset="0"
         style="stop-opacity:1;stop-color:#3e1416" /><stop
         id="stop192"
         offset="0.693548"
         style="stop-opacity:1;stop-color:#ed1e24" /><stop
         id="stop194"
         offset="0.994624"
         style="stop-opacity:1;stop-color:#80171b" /><stop
         id="stop196"
         offset="1"
         style="stop-opacity:1;stop-color:#80171b" /></linearGradient><clipPath
       id="clipPath208"
       clipPathUnits="userSpaceOnUse"><path
         id="path206"
         d="m 4576.48,2700.81 c 268.31,-70.05 459.14,214.71 611.04,386.24 142.29,160.73 284.02,319.19 509.5,341.12 -75.46,52.05 -165.3,140.61 -258,135.85 -130.94,-6.73 -211.53,-100.21 -289.52,-197.15 -163.74,-203.6 -376.91,-454 -654.32,-486.7 -33.34,-3.93 -73.89,-1.04 -106.08,6.5 44.12,-51.29 138.57,-145.95 178.28,-177.7" /></clipPath><linearGradient
       id="linearGradient218"
       spreadMethod="pad"
       gradientTransform="matrix(1233.38,666.083,666.083,-1233.38,4454.71,2798.32)"
       gradientUnits="userSpaceOnUse"
       y2="0"
       x2="1"
       y1="0"
       x1="0"><stop
         id="stop210"
         offset="0"
         style="stop-opacity:1;stop-color:#3e1416" /><stop
         id="stop212"
         offset="0.693548"
         style="stop-opacity:1;stop-color:#ed1e24" /><stop
         id="stop214"
         offset="0.994624"
         style="stop-opacity:1;stop-color:#80171b" /><stop
         id="stop216"
         offset="1"
         style="stop-opacity:1;stop-color:#80171b" /></linearGradient><clipPath
       id="clipPath228"
       clipPathUnits="userSpaceOnUse"><path
         id="path226"
         d="m 4184.71,3079.34 c 96.07,-85.67 301.11,27.9 388.28,82.69 111.85,70.34 195.76,184.24 283.96,283.37 116.28,130.69 275.14,253.83 463.68,242.9 1.48,-0.99 1.44,-1.02 -0.07,-0.1 -74.48,53.68 -152.27,146.04 -246.95,152.91 -145.56,10.55 -242.6,-100.52 -334.82,-195.24 -110.66,-113.66 -197.92,-227.43 -332.35,-313.27 -92.66,-59.12 -233.63,-105.5 -342.21,-61.17 -16.32,6.68 -31.94,14.64 -44.8,26.76 25.19,-78.19 111.24,-166.32 168.57,-218" /></clipPath><linearGradient
       id="linearGradient238"
       spreadMethod="pad"
       gradientTransform="matrix(1238.05,558.625,558.625,-1238.05,4071.91,3173.85)"
       gradientUnits="userSpaceOnUse"
       y2="0"
       x2="1"
       y1="0"
       x1="0"><stop
         id="stop230"
         offset="0"
         style="stop-opacity:1;stop-color:#3e1416" /><stop
         id="stop232"
         offset="0.693548"
         style="stop-opacity:1;stop-color:#ed1e24" /><stop
         id="stop234"
         offset="0.994624"
         style="stop-opacity:1;stop-color:#80171b" /><stop
         id="stop236"
         offset="1"
         style="stop-opacity:1;stop-color:#80171b" /></linearGradient><clipPath
       id="clipPath248"
       clipPathUnits="userSpaceOnUse"><path
         id="path246"
         d="m 3775.76,3660 c 64.05,-99 116.95,-208.67 280.28,-204.25 142.09,3.86 253.87,103.38 346.25,204.9 132.3,145.43 344.63,317.33 557.19,291.19 -76.78,58.1 -155.08,155.24 -254.52,150.28 -137.31,-6.87 -234.83,-77.93 -325.23,-177.71 -98.37,-108.56 -180.32,-212.82 -321.15,-261.44 -101.72,-35.11 -217.49,-6.21 -300.71,69.35 -0.53,1.07 -1.04,2.11 -1.59,3.17" /></clipPath><linearGradient
       id="linearGradient258"
       spreadMethod="pad"
       gradientTransform="matrix(1112.24,499.118,499.118,-1112.24,3821.24,3543.93)"
       gradientUnits="userSpaceOnUse"
       y2="0"
       x2="1"
       y1="0"
       x1="0"><stop
         id="stop250"
         offset="0"
         style="stop-opacity:1;stop-color:#3e1416" /><stop
         id="stop252"
         offset="0.693548"
         style="stop-opacity:1;stop-color:#ed1e24" /><stop
         id="stop254"
         offset="0.994624"
         style="stop-opacity:1;stop-color:#80171b" /><stop
         id="stop256"
         offset="1"
         style="stop-opacity:1;stop-color:#80171b" /></linearGradient><clipPath
       id="clipPath268"
       clipPathUnits="userSpaceOnUse"><path
         id="path266"
         d="m 3547.36,4070.19 c 46.95,-7.33 77.89,-91.66 103.65,-127.22 33.54,-46.37 73.12,-74.75 132.67,-82.33 142.61,-18.14 256.57,68.87 362.32,153.21 126.75,101.1 288.14,267.34 468.4,206.14 -24.48,38.62 -85.57,67.71 -122.74,97.42 -45.54,36.39 -73.1,67.17 -134.08,69.64 -129.07,5.22 -228.89,-83.91 -313.1,-167.55 -130.65,-129.78 -363.82,-272.46 -494.15,-106.54" /></clipPath><linearGradient
       id="linearGradient278"
       spreadMethod="pad"
       gradientTransform="matrix(992.454,401.597,401.597,-992.454,3590.33,3934.57)"
       gradientUnits="userSpaceOnUse"
       y2="0"
       x2="1"
       y1="0"
       x1="0"><stop
         id="stop270"
         offset="0"
         style="stop-opacity:1;stop-color:#3e1416" /><stop
         id="stop272"
         offset="0.693548"
         style="stop-opacity:1;stop-color:#ed1e24" /><stop
         id="stop274"
         offset="0.994624"
         style="stop-opacity:1;stop-color:#80171b" /><stop
         id="stop276"
         offset="1"
         style="stop-opacity:1;stop-color:#80171b" /></linearGradient><clipPath
       id="clipPath288"
       clipPathUnits="userSpaceOnUse"><path
         id="path286"
         d="m 2557.35,3755.16 c 253.07,-85.24 523.35,164.99 728.16,257.95 89.02,40.41 199.56,43.37 293.93,54.85 -67.56,126.11 -86.94,229.45 -247.56,226.7 -174.28,-2.97 -237.39,-97.32 -347.3,-173.66 -149.28,-103.7 -349.82,-163.82 -477.31,-158.2" /></clipPath><linearGradient
       id="linearGradient298"
       spreadMethod="pad"
       gradientTransform="matrix(987.839,405.517,405.517,-987.839,2562.33,3829.33)"
       gradientUnits="userSpaceOnUse"
       y2="0"
       x2="1"
       y1="0"
       x1="0"><stop
         id="stop290"
         offset="0"
         style="stop-opacity:1;stop-color:#3e1416" /><stop
         id="stop292"
         offset="0.693548"
         style="stop-opacity:1;stop-color:#ed1e24" /><stop
         id="stop294"
         offset="0.994624"
         style="stop-opacity:1;stop-color:#80171b" /><stop
         id="stop296"
         offset="1"
         style="stop-opacity:1;stop-color:#80171b" /></linearGradient><clipPath
       id="clipPath308"
       clipPathUnits="userSpaceOnUse"><path
         id="path306"
         d="m 3024.12,2923.35 c 243.05,-72.49 505.76,205.98 710.58,298.93 89.01,40.38 199.56,43.38 293.92,54.85 -67.55,126.11 -73.02,210.68 -233.17,198.12 -135.69,-10.66 -244.21,-71.25 -354.12,-147.59 -149.28,-103.71 -350.26,-247.77 -539.73,-187.37" /></clipPath><linearGradient
       id="linearGradient318"
       spreadMethod="pad"
       gradientTransform="matrix(1006.9,502.825,502.825,-1006.9,2970.35,2961.65)"
       gradientUnits="userSpaceOnUse"
       y2="0"
       x2="1"
       y1="0"
       x1="0"><stop
         id="stop310"
         offset="0"
         style="stop-opacity:1;stop-color:#3e1416" /><stop
         id="stop312"
         offset="0.693548"
         style="stop-opacity:1;stop-color:#ed1e24" /><stop
         id="stop314"
         offset="0.994624"
         style="stop-opacity:1;stop-color:#80171b" /><stop
         id="stop316"
         offset="1"
         style="stop-opacity:1;stop-color:#80171b" /></linearGradient><clipPath
       id="clipPath328"
       clipPathUnits="userSpaceOnUse"><path
         id="path326"
         d="m 2794.22,3312.14 c 243.07,-72.47 505.78,205.97 710.59,298.93 89.03,40.41 199.57,43.38 293.93,54.86 -67.56,126.1 -73.04,210.69 -233.18,198.12 -135.69,-10.66 -244.21,-71.26 -354.11,-147.59 -149.29,-103.71 -350.26,-247.77 -539.74,-187.36" /></clipPath><linearGradient
       id="linearGradient338"
       spreadMethod="pad"
       gradientTransform="matrix(1034.97,442.174,442.174,-1034.97,2722.84,3375.87)"
       gradientUnits="userSpaceOnUse"
       y2="0"
       x2="1"
       y1="0"
       x1="0"><stop
         id="stop330"
         offset="0"
         style="stop-opacity:1;stop-color:#3e1416" /><stop
         id="stop332"
         offset="0.693548"
         style="stop-opacity:1;stop-color:#ed1e24" /><stop
         id="stop334"
         offset="0.994624"
         style="stop-opacity:1;stop-color:#80171b" /><stop
         id="stop336"
         offset="1"
         style="stop-opacity:1;stop-color:#80171b" /></linearGradient><clipPath
       id="clipPath348"
       clipPathUnits="userSpaceOnUse"><path
         id="path346"
         d="m 3440.58,2544.19 c 86.92,5.72 147.72,24.58 233.19,53.07 119.62,39.85 213.85,135.42 315.15,209.8 99.25,72.92 233.3,120.29 356.7,115.79 -47.94,49.21 -91.15,129.22 -156.23,158.33 -86.1,38.53 -189.51,-8.52 -264.16,-45.47 -137.84,-68.21 -238.52,-177 -379.12,-240.22 -90.06,-40.51 -203.2,-78.26 -303.47,-81.22 -19.21,-0.59 -36.85,0.12 -55.73,-0.17 64.48,-60.08 173.12,-137.67 256.42,-171.54" /></clipPath><linearGradient
       id="linearGradient358"
       spreadMethod="pad"
       gradientTransform="matrix(1090.4,435.395,435.395,-1090.4,3229.7,2590.58)"
       gradientUnits="userSpaceOnUse"
       y2="0"
       x2="1"
       y1="0"
       x1="0"><stop
         id="stop350"
         offset="0"
         style="stop-opacity:1;stop-color:#3e1416" /><stop
         id="stop352"
         offset="0.693548"
         style="stop-opacity:1;stop-color:#ed1e24" /><stop
         id="stop354"
         offset="0.994624"
         style="stop-opacity:1;stop-color:#80171b" /><stop
         id="stop356"
         offset="1"
         style="stop-opacity:1;stop-color:#80171b" /></linearGradient><clipPath
       id="clipPath368"
       clipPathUnits="userSpaceOnUse"><path
         id="path366"
         d="m 3971.26,2242.35 c 222.35,-5.18 334.71,184.6 519.81,276.01 76.6,37.84 156.99,46.94 236.99,55.04 -29.36,64.48 -122.27,128.86 -186.68,155.06 -90.15,36.63 -183.64,-14.79 -247.02,-81.16 -74.57,-78.03 -191.53,-134.48 -292.53,-170.66 -84.57,-30.27 -170.33,-65.01 -254.19,-91.28" /></clipPath><linearGradient
       id="linearGradient378"
       spreadMethod="pad"
       gradientTransform="matrix(771.918,512.829,512.829,-771.918,3909.33,2261.12)"
       gradientUnits="userSpaceOnUse"
       y2="0"
       x2="1"
       y1="0"
       x1="0"><stop
         id="stop370"
         offset="0"
         style="stop-opacity:1;stop-color:#3e1416" /><stop
         id="stop372"
         offset="0.693548"
         style="stop-opacity:1;stop-color:#ed1e24" /><stop
         id="stop374"
         offset="0.994624"
         style="stop-opacity:1;stop-color:#80171b" /><stop
         id="stop376"
         offset="1"
         style="stop-opacity:1;stop-color:#80171b" /></linearGradient><clipPath
       id="clipPath388"
       clipPathUnits="userSpaceOnUse"><path
         id="path386"
         d="m 4472.46,2000.59 c 123.56,23.01 179.81,88.71 279.46,156.15 88.84,60.17 204.36,102.78 312.15,110.93 15.96,1.19 47.46,-9.49 62.7,-10.27 -60.14,75.91 -128.44,159.06 -232.11,160.24 -124.88,1.46 -243.42,-78.27 -334.89,-149.45 -63.76,-49.59 -192.82,-157.1 -275.65,-152.82" /></clipPath><linearGradient
       id="linearGradient398"
       spreadMethod="pad"
       gradientTransform="matrix(746.297,409.791,409.791,-746.297,4346.9,1998.91)"
       gradientUnits="userSpaceOnUse"
       y2="0"
       x2="1"
       y1="0"
       x1="0"><stop
         id="stop390"
         offset="0"
         style="stop-opacity:1;stop-color:#3e1416" /><stop
         id="stop392"
         offset="0.693548"
         style="stop-opacity:1;stop-color:#ed1e24" /><stop
         id="stop394"
         offset="0.994624"
         style="stop-opacity:1;stop-color:#80171b" /><stop
         id="stop396"
         offset="1"
         style="stop-opacity:1;stop-color:#80171b" /></linearGradient><clipPath
       id="clipPath408"
       clipPathUnits="userSpaceOnUse"><path
         id="path406"
         d="m 4643.54,1776.34 c 83.71,-79.95 163.27,-142 279.53,-106.41 109.52,33.55 207.71,147.07 305.95,205 82.98,48.96 172.51,93.26 273.94,86.1 -51.23,58.11 -142.84,150.86 -221.49,151.51 -112.88,0.93 -230.48,-70.4 -313.28,-132.48 -72.49,-54.42 -286,-213.55 -372.95,-125.17" /></clipPath><linearGradient
       id="linearGradient418"
       spreadMethod="pad"
       gradientTransform="matrix(836.605,346.278,346.278,-836.605,4640.73,1713.39)"
       gradientUnits="userSpaceOnUse"
       y2="0"
       x2="1"
       y1="0"
       x1="0"><stop
         id="stop410"
         offset="0"
         style="stop-opacity:1;stop-color:#3e1416" /><stop
         id="stop412"
         offset="0.693548"
         style="stop-opacity:1;stop-color:#ed1e24" /><stop
         id="stop414"
         offset="0.994624"
         style="stop-opacity:1;stop-color:#80171b" /><stop
         id="stop416"
         offset="1"
         style="stop-opacity:1;stop-color:#80171b" /></linearGradient><clipPath
       id="clipPath428"
       clipPathUnits="userSpaceOnUse"><path
         id="path426"
         d="m 3869.64,1695.65 c 38.76,-50.7 59.53,-117.7 112.76,-124.96 49.04,-6.68 103.2,19.81 146.22,44.58 93.47,53.69 163.45,147.9 217.47,238.54 45.8,76.82 124.04,153.8 210.56,173.01 -46.5,16.9 -228.01,96.69 -270.06,88.03 -91.78,-18.92 -189.26,-147.73 -242,-219.13 -26.25,-35.53 -186.1,-229.2 -224.16,-145.09" /></clipPath><linearGradient
       id="linearGradient438"
       spreadMethod="pad"
       gradientTransform="matrix(642.534,446.088,446.088,-642.534,3892.29,1653.19)"
       gradientUnits="userSpaceOnUse"
       y2="0"
       x2="1"
       y1="0"
       x1="0"><stop
         id="stop430"
         offset="0"
         style="stop-opacity:1;stop-color:#3e1416" /><stop
         id="stop432"
         offset="0.693548"
         style="stop-opacity:1;stop-color:#ed1e24" /><stop
         id="stop434"
         offset="0.994624"
         style="stop-opacity:1;stop-color:#80171b" /><stop
         id="stop436"
         offset="1"
         style="stop-opacity:1;stop-color:#80171b" /></linearGradient><clipPath
       id="clipPath448"
       clipPathUnits="userSpaceOnUse"><path
         id="path446"
         d="m 3193.87,1899.34 c 34.49,-16.61 59.48,-41.29 97.08,-52.54 37.74,-11.31 74.55,-16.07 113.41,-21.51 79.32,-11.09 157.12,4.87 226.82,41.62 151.89,80.12 228.7,250.65 383.28,316.57 25.37,10.83 56.06,18.63 79.45,32.18 -64.31,20.21 -123.74,60.93 -184.63,88.29 -80.77,36.29 -152.81,8.02 -213.94,-50.61 -63.48,-60.88 -111.46,-137.5 -178.09,-196.23 -64.45,-56.86 -128.38,-103.15 -208.35,-133.27 -29.2,-10.99 -84.68,-38.53 -115.03,-24.5" /></clipPath><linearGradient
       id="linearGradient458"
       spreadMethod="pad"
       gradientTransform="matrix(668.961,458.564,458.564,-668.961,3339.25,1839)"
       gradientUnits="userSpaceOnUse"
       y2="0"
       x2="1"
       y1="0"
       x1="0"><stop
         id="stop450"
         offset="0"
         style="stop-opacity:1;stop-color:#3e1416" /><stop
         id="stop452"
         offset="0.693548"
         style="stop-opacity:1;stop-color:#ed1e24" /><stop
         id="stop454"
         offset="0.994624"
         style="stop-opacity:1;stop-color:#80171b" /><stop
         id="stop456"
         offset="1"
         style="stop-opacity:1;stop-color:#80171b" /></linearGradient><clipPath
       id="clipPath468"
       clipPathUnits="userSpaceOnUse"><path
         id="path466"
         d="m 2553.33,2156.49 c 159.3,-37.36 303.71,-216.23 475.63,-143.26 83.59,35.47 160.28,115.38 215.82,186.2 64.63,82.43 147.97,147.9 242.01,192.79 44.36,21.16 95.13,41.5 143.94,47.46 -65.31,41.44 -126.2,84.7 -198.34,115.82 -81.37,35.09 -151.4,11.94 -220.33,-39.38 -79.5,-59.18 -124.68,-150.85 -207.32,-209.8 -73.66,-52.58 -154.72,-98.18 -241.69,-121.38 -93.96,-25.04 -265.33,-28.21 -338.56,45.67" /></clipPath><linearGradient
       id="linearGradient478"
       spreadMethod="pad"
       gradientTransform="matrix(972.469,703.282,703.282,-972.469,2649.45,2060.88)"
       gradientUnits="userSpaceOnUse"
       y2="0"
       x2="1"
       y1="0"
       x1="0"><stop
         id="stop470"
         offset="0"
         style="stop-opacity:1;stop-color:#3e1416" /><stop
         id="stop472"
         offset="0.693548"
         style="stop-opacity:1;stop-color:#ed1e24" /><stop
         id="stop474"
         offset="0.994624"
         style="stop-opacity:1;stop-color:#80171b" /><stop
         id="stop476"
         offset="1"
         style="stop-opacity:1;stop-color:#80171b" /></linearGradient><clipPath
       id="clipPath488"
       clipPathUnits="userSpaceOnUse"><path
         id="path486"
         d="m 1210.06,253 c 63.5,215.711 206.88,387.93 445.88,416.32 213.94,25.41 404.11,-41.699 624.34,49.149 205.6,84.801 347.85,272.09 498.23,429.291 164.48,171.91 305.69,326.05 509.44,441.28 108.86,61.59 344.87,218.04 470.93,183.04 -129.67,24.82 -264.67,65.52 -396.16,75.49 -229.32,17.4 -406.82,-170.33 -565.7,-309.71 -153.07,-134.26 -252.29,-318.97 -403.13,-452.41 -157.8,-139.591 -385.35,-190.278 -591.52,-170.18 -232.41,22.679 -401.33,-34.508 -568.33,-192.2 -36.77,-34.718 -60.56,-59.8 -85.39,-105.488 z" /></clipPath><linearGradient
       id="linearGradient500"
       spreadMethod="pad"
       gradientTransform="matrix(2757.22,711.616,711.616,-2757.22,1081.72,750.27)"
       gradientUnits="userSpaceOnUse"
       y2="0"
       x2="1"
       y1="0"
       x1="0"><stop
         id="stop490"
         offset="0"
         style="stop-opacity:1;stop-color:#e51d25" /><stop
         id="stop492"
         offset="0.408602"
         style="stop-opacity:1;stop-color:#9b1a20" /><stop
         id="stop494"
         offset="0.715054"
         style="stop-opacity:1;stop-color:#ed1e24" /><stop
         id="stop496"
         offset="0.994624"
         style="stop-opacity:1;stop-color:#80171b" /><stop
         id="stop498"
         offset="1"
         style="stop-opacity:1;stop-color:#80171b" /></linearGradient><clipPath
       id="clipPath510"
       clipPathUnits="userSpaceOnUse"><path
         id="path508"
         d="m 1096.97,926.34 c 59.28,113.65 151.15,168.71 270.84,207.62 122.07,39.67 256.98,16.9 380.42,31.76 140.22,16.88 276.8,34.25 394.33,127.06 107.08,84.57 203.26,195.99 298.1,293.06 102.85,105.26 211.84,174.58 342.67,235.66 50.79,23.71 101.73,45.04 155.78,61.11 23.37,6.92 157.12,22.3 165.11,39.03 2.15,-0.15 3.91,0.56 5.29,2.04 -96.59,35.01 -184.12,102.76 -286.86,111.69 -103.74,9.05 -227.54,-32.81 -313.05,-88.57 -217.04,-141.52 -348.41,-396.45 -571.06,-528.23 -217.29,-128.62 -456.74,18.16 -685.09,-58.55 -99.3,-33.36 -143.57,-76.71 -210.14,-153.45 z" /></clipPath><linearGradient
       id="linearGradient522"
       spreadMethod="pad"
       gradientTransform="matrix(1907.06,1092.7,1092.7,-1907.06,1113.78,993.98)"
       gradientUnits="userSpaceOnUse"
       y2="0"
       x2="1"
       y1="0"
       x1="0"><stop
         id="stop512"
         offset="0"
         style="stop-opacity:1;stop-color:#e51d25" /><stop
         id="stop514"
         offset="0.408602"
         style="stop-opacity:1;stop-color:#9b1a20" /><stop
         id="stop516"
         offset="0.715054"
         style="stop-opacity:1;stop-color:#ed1e24" /><stop
         id="stop518"
         offset="0.994624"
         style="stop-opacity:1;stop-color:#80171b" /><stop
         id="stop520"
         offset="1"
         style="stop-opacity:1;stop-color:#80171b" /></linearGradient><clipPath
       id="clipPath532"
       clipPathUnits="userSpaceOnUse"><path
         id="path530"
         d="m 982.59,1514.18 c 95.47,123.43 233.87,116.88 373.18,99.81 139.36,-17.05 277.96,-35.01 407.88,34.5 136.68,73.09 221.96,218.51 342.79,313.29 108.75,85.32 238.56,148.79 375.13,174.01 38.08,7.05 77.8,7.52 115.01,11.86 -103.74,27.15 -178.65,114.19 -274.17,147.22 -116.05,40.16 -252.97,-48.37 -328.57,-127.47 -91.84,-96.07 -172.09,-223.8 -279.8,-302.52 -97.71,-71.38 -214.96,-58.96 -327.83,-42.51 -85.24,12.46 -166.97,35.97 -255.09,34.74 -81.21,-1.15 -139.21,-37.2 -210.69,-61.4 z" /></clipPath><linearGradient
       id="linearGradient544"
       spreadMethod="pad"
       gradientTransform="matrix(1535.76,776.92,776.92,-1535.76,988.145,1542.99)"
       gradientUnits="userSpaceOnUse"
       y2="0"
       x2="1"
       y1="0"
       x1="0"><stop
         id="stop534"
         offset="0"
         style="stop-opacity:1;stop-color:#e51d25" /><stop
         id="stop536"
         offset="0.408602"
         style="stop-opacity:1;stop-color:#9b1a20" /><stop
         id="stop538"
         offset="0.715054"
         style="stop-opacity:1;stop-color:#ed1e24" /><stop
         id="stop540"
         offset="0.994624"
         style="stop-opacity:1;stop-color:#80171b" /><stop
         id="stop542"
         offset="1"
         style="stop-opacity:1;stop-color:#80171b" /></linearGradient><clipPath
       id="clipPath554"
       clipPathUnits="userSpaceOnUse"><path
         id="path552"
         d="m 6751.15,2658.15 c 37.34,-9.06 82.5,14.88 84.9,23.65 57.35,-45.19 106.63,-74.02 166.15,-114.67 6,-61.51 -4.41,-75.86 -60.88,-67.05 -58.87,9.16 -100.57,68.7 -140.62,110.75" /></clipPath><linearGradient
       id="linearGradient564"
       spreadMethod="pad"
       gradientTransform="matrix(137.971,123.355,123.355,-137.971,6826.23,2540.62)"
       gradientUnits="userSpaceOnUse"
       y2="0"
       x2="1"
       y1="0"
       x1="0"><stop
         id="stop556"
         offset="0"
         style="stop-opacity:1;stop-color:#3e1416" /><stop
         id="stop558"
         offset="0.693548"
         style="stop-opacity:1;stop-color:#ed1e24" /><stop
         id="stop560"
         offset="0.994624"
         style="stop-opacity:1;stop-color:#80171b" /><stop
         id="stop562"
         offset="1"
         style="stop-opacity:1;stop-color:#80171b" /></linearGradient><clipPath
       id="clipPath576"
       clipPathUnits="userSpaceOnUse"><path
         id="path574"
         d="m 1786.83,3986.92 c -5.73,103.56 259.61,83.39 410.26,38.19 121.31,-36.38 178.03,-92.92 345.54,-63.69 0,0 484.34,-1089.86 686.37,-1275.78 0,0 -1395.09,449 -1442.17,1301.28 z" /></clipPath><linearGradient
       id="linearGradient588"
       spreadMethod="pad"
       gradientTransform="matrix(360.115,281.094,281.094,-360.115,2413.22,3276.4)"
       gradientUnits="userSpaceOnUse"
       y2="0"
       x2="1"
       y1="0"
       x1="0"><stop
         id="stop578"
         offset="0"
         style="stop-opacity:1;stop-color:#15182a" /><stop
         id="stop580"
         offset="0.0681893"
         style="stop-opacity:1;stop-color:#15182a" /><stop
         id="stop582"
         offset="0.429044"
         style="stop-opacity:1;stop-color:#263d7f" /><stop
         id="stop584"
         offset="0.648803"
         style="stop-opacity:1;stop-color:#2f70b1" /><stop
         id="stop586"
         offset="1"
         style="stop-opacity:1;stop-color:#1d355b" /></linearGradient><clipPath
       id="clipPath598"
       clipPathUnits="userSpaceOnUse"><path
         id="path596"
         d="m 1240.34,3409.42 c -14.22,-119.7 92.39,-246.11 148.45,-343.74 36.67,-63.86 73.51,-124.64 117.29,-184.02 62.73,-85.03 125.28,-174.35 207.13,-241.82 83.16,-68.52 189.38,-85.37 285.14,-128.48 93.13,-41.93 181.25,-88.72 274.4,-131.89 74.83,-34.69 143.95,-53.1 224.14,-40.45 177.59,27.98 247.74,132.53 378.04,235.39 90.56,71.48 179.34,112.16 285.89,140.32 0,0 -1288.34,904.43 -1411.12,1470.27 -56.88,262.17 -413.97,-115.09 -482.5,-157.14 -45.57,-27.96 -97.61,-49.65 -154.19,-52.74 -78.08,-4.28 -131.905,-19 -209.967,-36.57" /></clipPath><linearGradient
       id="linearGradient608"
       spreadMethod="pad"
       gradientTransform="matrix(681.359,616.393,616.393,-681.359,1577.55,2915.58)"
       gradientUnits="userSpaceOnUse"
       y2="0"
       x2="1"
       y1="0"
       x1="0"><stop
         id="stop600"
         offset="0"
         style="stop-opacity:1;stop-color:#141418" /><stop
         id="stop602"
         offset="0.379805"
         style="stop-opacity:1;stop-color:#263d7f" /><stop
         id="stop604"
         offset="0.7908"
         style="stop-opacity:1;stop-color:#2f70b1" /><stop
         id="stop606"
         offset="1"
         style="stop-opacity:1;stop-color:#1d355b" /></linearGradient><clipPath
       id="clipPath618"
       clipPathUnits="userSpaceOnUse"><path
         id="path616"
         d="m 2167.41,2430.9 c 28.62,-15.54 -123.6,37.38 -216.32,10.69 -79.12,-22.77 -137.55,-70.15 -195.02,-125.62 -115.07,-111 -224.37,-243.26 -399.53,-225.89 -126.62,12.55 -416.868,77.38 -498.696,-65.43 0,0 -545.625,1906.11 -588.828,1964.99 0,0 107.429,144.41 263.152,137.93 0,0 104.18,-5.78 180.137,-46.86 0,0 25.429,-26.13 77.793,6.06 0,0 106.734,92.91 187.066,52.96 l 23.146,-17.37 c 0,0 280.27,-669.89 454.35,-928.38 0,0 346.33,-564.15 712.75,-763.08 z" /></clipPath><linearGradient
       id="linearGradient626"
       spreadMethod="pad"
       gradientTransform="matrix(762.3,278.293,278.293,-762.3,603.208,2978.53)"
       gradientUnits="userSpaceOnUse"
       y2="0"
       x2="1"
       y1="0"
       x1="0"><stop
         id="stop620"
         offset="0"
         style="stop-opacity:1;stop-color:#273979" /><stop
         id="stop622"
         offset="0.327957"
         style="stop-opacity:1;stop-color:#2f70b1" /><stop
         id="stop624"
         offset="1"
         style="stop-opacity:1;stop-color:#1d355b" /></linearGradient></defs><g
     transform="matrix(1.3333333,0,0,-1.3333333,0,665.84)"
     id="g10"><g
       transform="scale(0.1)"
       id="g12"><g
         id="g14"><g
           clip-path="url(#clipPath20)"
           id="g16"><path
             id="path32"
             style="fill:url(#linearGradient30);fill-opacity:1;fill-rule:nonzero;stroke:none"
             d="m 4723.32,4153.12 c 26.43,-38.8 56.36,-83.47 89.68,-116.88 51.65,-51.81 69.41,-5.78 102.61,39.51 92.64,126.41 84.26,243.89 146.11,339.76 45.32,70.31 190.28,154.95 265.04,58.97 -26.04,96.91 -38.59,234.77 -164.58,243.56 C 5017,4728.15 4921.95,4600.21 4869.08,4483.67 4816.23,4367.2 4777.39,4254.42 4726.7,4140" /></g></g><g
         id="g34"><g
           clip-path="url(#clipPath40)"
           id="g36"><path
             id="path52"
             style="fill:url(#linearGradient50);fill-opacity:1;fill-rule:nonzero;stroke:none"
             d="m 5033.54,3900.6 c 88.49,12.15 108.64,182.9 134.82,260.02 23.85,70.33 89.37,134.05 144.28,164.43 59.23,32.8 72.54,-41.94 101.55,-95.14 17.42,-31.89 35.2,-69.84 53.68,-101.16 -91.69,-18.35 -139.15,-46.72 -171.83,-135.89 -25.71,-70.13 -22.98,-184.82 -79.09,-236.17 -49.1,25.46 -151.8,105.89 -182.01,143.1" /></g></g><g
         id="g54"><g
           clip-path="url(#clipPath60)"
           id="g56"><path
             id="path72"
             style="fill:url(#linearGradient70);fill-opacity:1;fill-rule:nonzero;stroke:none"
             d="m 5378.34,3649.98 c 50.87,30.74 48.75,85.25 61.99,135.05 13.89,52.12 48.08,112.73 82.99,153.27 57.18,66.43 71.36,-7.62 108.65,-50.13 32.36,-36.96 54.38,-86.65 90.28,-120.7 -123.1,-33.55 -82.82,-178.62 -152.16,-250.06 -37.95,18.23 -183.43,119.13 -190.55,134.63" /></g></g><g
         id="g74"><g
           clip-path="url(#clipPath80)"
           id="g76"><path
             id="path92"
             style="fill:url(#linearGradient90);fill-opacity:1;fill-rule:nonzero;stroke:none"
             d="m 5750.3,3388.88 c -2.9,72.28 53.14,163.62 121.53,191.87 39.75,-74.29 108.25,-127.62 163.39,-188.61 -66.25,-13.07 -91.63,-76.55 -110.42,-136.78 -59.98,20.88 -128.43,98.07 -176.2,140.08" /></g></g><g
         id="g94"><g
           clip-path="url(#clipPath100)"
           id="g96"><path
             id="path112"
             style="fill:url(#linearGradient110);fill-opacity:1;fill-rule:nonzero;stroke:none"
             d="m 6094.21,3141.53 c 14.02,47.45 54.59,79.17 103.41,85.7 39.45,-55.83 122.63,-102.06 172.64,-164.99 -37.31,-3.73 -83.9,-32.66 -96.84,-72.78 -53.18,33.24 -160.79,99.84 -179.21,152.07" /></g></g><g
         id="g114"><g
           clip-path="url(#clipPath120)"
           id="g116"><path
             id="path132"
             style="fill:url(#linearGradient130);fill-opacity:1;fill-rule:nonzero;stroke:none"
             d="m 6439.09,2876.95 c 1.37,24.54 49.27,64.91 72.62,71.26 45.62,-42.66 110.16,-101.11 156.42,-131.18 -16.99,-18.29 -45.07,-48.24 -59.8,-70.13 -54.42,48.93 -120.64,84.65 -170.92,136.62" /></g></g><path
         id="path134"
         style="fill:#231312;fill-opacity:1;fill-rule:nonzero;stroke:none"
         d="m 6682.32,2680.65 c 53.25,10.47 111.58,-67.12 144.01,-100.19 48.17,-49.09 102.38,-67.31 173.74,-59.37 -128.05,-188.86 -323.39,140.61 -477.91,81.46" /><path
         id="path136"
         style="fill:#231312;fill-opacity:1;fill-rule:nonzero;stroke:none"
         d="m 5348.04,1972.16 c 68.23,37.45 132.1,16.78 187.7,-37.9 52.54,-51.71 96.23,-175.89 164.07,-230.74 l -344.42,240.19" /><path
         id="path138"
         style="fill:#231312;fill-opacity:1;fill-rule:nonzero;stroke:none"
         d="m 3674.97,1778.44 c 0,0 136.52,47.49 264.82,-171.48 l 20.8,-33.14 -404.17,168.77" /><path
         id="path140"
         style="fill:#4c1317;fill-opacity:1;fill-rule:nonzero;stroke:none"
         d="m 4377.61,1934.09 c 19.35,65.76 118.57,114.78 180.19,88.53 78.15,-33.27 85.22,-124.37 107.32,-198.69 19.16,-64.53 62.6,-130.86 132.69,-152.48 l -433.78,242.82" /><g
         id="g142"><g
           clip-path="url(#clipPath148)"
           id="g144"><path
             id="path160"
             style="fill:url(#linearGradient158);fill-opacity:1;fill-rule:nonzero;stroke:none"
             d="m 5391.33,2029.32 c 252.35,-11.3 378.4,271.33 487.32,450.77 132.41,218.12 279.12,386.63 521.14,461.84 -82.55,41.43 -156.66,132.92 -252.39,118.74 -136.09,-20.17 -241.6,-139.53 -312.45,-250.77 -79.82,-125.31 -150.94,-268.08 -250.03,-380.38 -74.54,-84.46 -171.27,-194.14 -275.49,-233.09 -26.23,-9.83 -53.75,-12.26 -80.41,-14.88 30.25,-39.01 82.07,-82.73 122.72,-108.15" /></g></g><g
         id="g162"><g
           clip-path="url(#clipPath168)"
           id="g164"><path
             id="path180"
             style="fill:url(#linearGradient178);fill-opacity:1;fill-rule:nonzero;stroke:none"
             d="m 5551.32,1928.37 c 92.82,-97.4 213.21,12.36 268.79,64.1 181.64,169.08 234.45,485.66 414.29,660.1 78.58,76.22 164.3,160.22 281.98,152.52 81.59,-5.36 171.62,-100.03 237.41,-148.46 -81.1,15.51 -167.89,-11.66 -236.95,-53.82 -105.66,-64.48 -423.83,-574.53 -452.36,-631.31 -49.69,-98.84 -218.01,-311.83 -357.36,-273.39 0,0 -65.94,38.12 -155.8,230.26" /></g></g><g
         id="g182"><g
           clip-path="url(#clipPath188)"
           id="g184"><path
             id="path200"
             style="fill:url(#linearGradient198);fill-opacity:1;fill-rule:nonzero;stroke:none"
             d="m 4998.44,2354.57 c 93.89,-33.18 215.13,51.16 279.55,110.68 104.28,96.36 202.91,230.32 285.97,343.37 123.37,167.9 289.8,344.52 511.67,359.47 -40.23,26.27 -85.34,43.82 -125.92,68.49 -51.92,31.55 -82.94,57.01 -143.5,44.19 -168.19,-35.55 -287.25,-166.66 -389.79,-296.84 -99.13,-125.86 -151.96,-267.97 -286.79,-364.43 -77.67,-55.57 -222.75,-121.91 -320.79,-101.61 24.85,-25.58 55.55,-43.72 80.45,-69.03 19.97,-20.26 32.31,-48.97 58.77,-61.77" /></g></g><g
         id="g202"><g
           clip-path="url(#clipPath208)"
           id="g204"><path
             id="path220"
             style="fill:url(#linearGradient218);fill-opacity:1;fill-rule:nonzero;stroke:none"
             d="m 4576.48,2700.81 c 268.31,-70.05 459.14,214.71 611.04,386.24 142.29,160.73 284.02,319.19 509.5,341.12 -75.46,52.05 -165.3,140.61 -258,135.85 -130.94,-6.73 -211.53,-100.21 -289.52,-197.15 -163.74,-203.6 -376.91,-454 -654.32,-486.7 -33.34,-3.93 -73.89,-1.04 -106.08,6.5 44.12,-51.29 138.57,-145.95 178.28,-177.7" /></g></g><g
         id="g222"><g
           clip-path="url(#clipPath228)"
           id="g224"><path
             id="path240"
             style="fill:url(#linearGradient238);fill-opacity:1;fill-rule:nonzero;stroke:none"
             d="m 4184.71,3079.34 c 96.07,-85.67 301.11,27.9 388.28,82.69 111.85,70.34 195.76,184.24 283.96,283.37 116.28,130.69 275.14,253.83 463.68,242.9 1.48,-0.99 1.44,-1.02 -0.07,-0.1 -74.48,53.68 -152.27,146.04 -246.95,152.91 -145.56,10.55 -242.6,-100.52 -334.82,-195.24 -110.66,-113.66 -197.92,-227.43 -332.35,-313.27 -92.66,-59.12 -233.63,-105.5 -342.21,-61.17 -16.32,6.68 -31.94,14.64 -44.8,26.76 25.19,-78.19 111.24,-166.32 168.57,-218" /></g></g><g
         id="g242"><g
           clip-path="url(#clipPath248)"
           id="g244"><path
             id="path260"
             style="fill:url(#linearGradient258);fill-opacity:1;fill-rule:nonzero;stroke:none"
             d="m 3775.76,3660 c 64.05,-99 116.95,-208.67 280.28,-204.25 142.09,3.86 253.87,103.38 346.25,204.9 132.3,145.43 344.63,317.33 557.19,291.19 -76.78,58.1 -155.08,155.24 -254.52,150.28 -137.31,-6.87 -234.83,-77.93 -325.23,-177.71 -98.37,-108.56 -180.32,-212.82 -321.15,-261.44 -101.72,-35.11 -217.49,-6.21 -300.71,69.35 -0.53,1.07 -1.04,2.11 -1.59,3.17" /></g></g><g
         id="g262"><g
           clip-path="url(#clipPath268)"
           id="g264"><path
             id="path280"
             style="fill:url(#linearGradient278);fill-opacity:1;fill-rule:nonzero;stroke:none"
             d="m 3547.36,4070.19 c 46.95,-7.33 77.89,-91.66 103.65,-127.22 33.54,-46.37 73.12,-74.75 132.67,-82.33 142.61,-18.14 256.57,68.87 362.32,153.21 126.75,101.1 288.14,267.34 468.4,206.14 -24.48,38.62 -85.57,67.71 -122.74,97.42 -45.54,36.39 -73.1,67.17 -134.08,69.64 -129.07,5.22 -228.89,-83.91 -313.1,-167.55 -130.65,-129.78 -363.82,-272.46 -494.15,-106.54" /></g></g><g
         id="g282"><g
           clip-path="url(#clipPath288)"
           id="g284"><path
             id="path300"
             style="fill:url(#linearGradient298);fill-opacity:1;fill-rule:nonzero;stroke:none"
             d="m 2557.35,3755.16 c 253.07,-85.24 523.35,164.99 728.16,257.95 89.02,40.41 199.56,43.37 293.93,54.85 -67.56,126.11 -86.94,229.45 -247.56,226.7 -174.28,-2.97 -237.39,-97.32 -347.3,-173.66 -149.28,-103.7 -349.82,-163.82 -477.31,-158.2" /></g></g><g
         id="g302"><g
           clip-path="url(#clipPath308)"
           id="g304"><path
             id="path320"
             style="fill:url(#linearGradient318);fill-opacity:1;fill-rule:nonzero;stroke:none"
             d="m 3024.12,2923.35 c 243.05,-72.49 505.76,205.98 710.58,298.93 89.01,40.38 199.56,43.38 293.92,54.85 -67.55,126.11 -73.02,210.68 -233.17,198.12 -135.69,-10.66 -244.21,-71.25 -354.12,-147.59 -149.28,-103.71 -350.26,-247.77 -539.73,-187.37" /></g></g><g
         id="g322"><g
           clip-path="url(#clipPath328)"
           id="g324"><path
             id="path340"
             style="fill:url(#linearGradient338);fill-opacity:1;fill-rule:nonzero;stroke:none"
             d="m 2794.22,3312.14 c 243.07,-72.47 505.78,205.97 710.59,298.93 89.03,40.41 199.57,43.38 293.93,54.86 -67.56,126.1 -73.04,210.69 -233.18,198.12 -135.69,-10.66 -244.21,-71.26 -354.11,-147.59 -149.29,-103.71 -350.26,-247.77 -539.74,-187.36" /></g></g><g
         id="g342"><g
           clip-path="url(#clipPath348)"
           id="g344"><path
             id="path360"
             style="fill:url(#linearGradient358);fill-opacity:1;fill-rule:nonzero;stroke:none"
             d="m 3440.58,2544.19 c 86.92,5.72 147.72,24.58 233.19,53.07 119.62,39.85 213.85,135.42 315.15,209.8 99.25,72.92 233.3,120.29 356.7,115.79 -47.94,49.21 -91.15,129.22 -156.23,158.33 -86.1,38.53 -189.51,-8.52 -264.16,-45.47 -137.84,-68.21 -238.52,-177 -379.12,-240.22 -90.06,-40.51 -203.2,-78.26 -303.47,-81.22 -19.21,-0.59 -36.85,0.12 -55.73,-0.17 64.48,-60.08 173.12,-137.67 256.42,-171.54" /></g></g><g
         id="g362"><g
           clip-path="url(#clipPath368)"
           id="g364"><path
             id="path380"
             style="fill:url(#linearGradient378);fill-opacity:1;fill-rule:nonzero;stroke:none"
             d="m 3971.26,2242.35 c 222.35,-5.18 334.71,184.6 519.81,276.01 76.6,37.84 156.99,46.94 236.99,55.04 -29.36,64.48 -122.27,128.86 -186.68,155.06 -90.15,36.63 -183.64,-14.79 -247.02,-81.16 -74.57,-78.03 -191.53,-134.48 -292.53,-170.66 -84.57,-30.27 -170.33,-65.01 -254.19,-91.28" /></g></g><g
         id="g382"><g
           clip-path="url(#clipPath388)"
           id="g384"><path
             id="path400"
             style="fill:url(#linearGradient398);fill-opacity:1;fill-rule:nonzero;stroke:none"
             d="m 4472.46,2000.59 c 123.56,23.01 179.81,88.71 279.46,156.15 88.84,60.17 204.36,102.78 312.15,110.93 15.96,1.19 47.46,-9.49 62.7,-10.27 -60.14,75.91 -128.44,159.06 -232.11,160.24 -124.88,1.46 -243.42,-78.27 -334.89,-149.45 -63.76,-49.59 -192.82,-157.1 -275.65,-152.82" /></g></g><g
         id="g402"><g
           clip-path="url(#clipPath408)"
           id="g404"><path
             id="path420"
             style="fill:url(#linearGradient418);fill-opacity:1;fill-rule:nonzero;stroke:none"
             d="m 4643.54,1776.34 c 83.71,-79.95 163.27,-142 279.53,-106.41 109.52,33.55 207.71,147.07 305.95,205 82.98,48.96 172.51,93.26 273.94,86.1 -51.23,58.11 -142.84,150.86 -221.49,151.51 -112.88,0.93 -230.48,-70.4 -313.28,-132.48 -72.49,-54.42 -286,-213.55 -372.95,-125.17" /></g></g><g
         id="g422"><g
           clip-path="url(#clipPath428)"
           id="g424"><path
             id="path440"
             style="fill:url(#linearGradient438);fill-opacity:1;fill-rule:nonzero;stroke:none"
             d="m 3869.64,1695.65 c 38.76,-50.7 59.53,-117.7 112.76,-124.96 49.04,-6.68 103.2,19.81 146.22,44.58 93.47,53.69 163.45,147.9 217.47,238.54 45.8,76.82 124.04,153.8 210.56,173.01 -46.5,16.9 -228.01,96.69 -270.06,88.03 -91.78,-18.92 -189.26,-147.73 -242,-219.13 -26.25,-35.53 -186.1,-229.2 -224.16,-145.09" /></g></g><g
         id="g442"><g
           clip-path="url(#clipPath448)"
           id="g444"><path
             id="path460"
             style="fill:url(#linearGradient458);fill-opacity:1;fill-rule:nonzero;stroke:none"
             d="m 3193.87,1899.34 c 34.49,-16.61 59.48,-41.29 97.08,-52.54 37.74,-11.31 74.55,-16.07 113.41,-21.51 79.32,-11.09 157.12,4.87 226.82,41.62 151.89,80.12 228.7,250.65 383.28,316.57 25.37,10.83 56.06,18.63 79.45,32.18 -64.31,20.21 -123.74,60.93 -184.63,88.29 -80.77,36.29 -152.81,8.02 -213.94,-50.61 -63.48,-60.88 -111.46,-137.5 -178.09,-196.23 -64.45,-56.86 -128.38,-103.15 -208.35,-133.27 -29.2,-10.99 -84.68,-38.53 -115.03,-24.5" /></g></g><g
         id="g462"><g
           clip-path="url(#clipPath468)"
           id="g464"><path
             id="path480"
             style="fill:url(#linearGradient478);fill-opacity:1;fill-rule:nonzero;stroke:none"
             d="m 2553.33,2156.49 c 159.3,-37.36 303.71,-216.23 475.63,-143.26 83.59,35.47 160.28,115.38 215.82,186.2 64.63,82.43 147.97,147.9 242.01,192.79 44.36,21.16 95.13,41.5 143.94,47.46 -65.31,41.44 -126.2,84.7 -198.34,115.82 -81.37,35.09 -151.4,11.94 -220.33,-39.38 -79.5,-59.18 -124.68,-150.85 -207.32,-209.8 -73.66,-52.58 -154.72,-98.18 -241.69,-121.38 -93.96,-25.04 -265.33,-28.21 -338.56,45.67" /></g></g><g
         id="g482"><g
           clip-path="url(#clipPath488)"
           id="g484"><path
             id="path502"
             style="fill:url(#linearGradient500);fill-opacity:1;fill-rule:nonzero;stroke:none"
             d="m 1210.06,253 c 63.5,215.711 206.88,387.93 445.88,416.32 213.94,25.41 404.11,-41.699 624.34,49.149 205.6,84.801 347.85,272.09 498.23,429.291 164.48,171.91 305.69,326.05 509.44,441.28 108.86,61.59 344.87,218.04 470.93,183.04 -129.67,24.82 -264.67,65.52 -396.16,75.49 -229.32,17.4 -406.82,-170.33 -565.7,-309.71 -153.07,-134.26 -252.29,-318.97 -403.13,-452.41 -157.8,-139.591 -385.35,-190.278 -591.52,-170.18 -232.41,22.679 -401.33,-34.508 -568.33,-192.2 -36.77,-34.718 -60.56,-59.8 -85.39,-105.488 L 1210.06,253" /></g></g><g
         id="g504"><g
           clip-path="url(#clipPath510)"
           id="g506"><path
             id="path524"
             style="fill:url(#linearGradient522);fill-opacity:1;fill-rule:nonzero;stroke:none"
             d="m 1096.97,926.34 c 59.28,113.65 151.15,168.71 270.84,207.62 122.07,39.67 256.98,16.9 380.42,31.76 140.22,16.88 276.8,34.25 394.33,127.06 107.08,84.57 203.26,195.99 298.1,293.06 102.85,105.26 211.84,174.58 342.67,235.66 50.79,23.71 101.73,45.04 155.78,61.11 23.37,6.92 157.12,22.3 165.11,39.03 2.15,-0.15 3.91,0.56 5.29,2.04 -96.59,35.01 -184.12,102.76 -286.86,111.69 -103.74,9.05 -227.54,-32.81 -313.05,-88.57 -217.04,-141.52 -348.41,-396.45 -571.06,-528.23 -217.29,-128.62 -456.74,18.16 -685.09,-58.55 -99.3,-33.36 -143.57,-76.71 -210.14,-153.45 l 53.66,-280.23" /></g></g><g
         id="g526"><g
           clip-path="url(#clipPath532)"
           id="g528"><path
             id="path546"
             style="fill:url(#linearGradient544);fill-opacity:1;fill-rule:nonzero;stroke:none"
             d="m 982.59,1514.18 c 95.47,123.43 233.87,116.88 373.18,99.81 139.36,-17.05 277.96,-35.01 407.88,34.5 136.68,73.09 221.96,218.51 342.79,313.29 108.75,85.32 238.56,148.79 375.13,174.01 38.08,7.05 77.8,7.52 115.01,11.86 -103.74,27.15 -178.65,114.19 -274.17,147.22 -116.05,40.16 -252.97,-48.37 -328.57,-127.47 -91.84,-96.07 -172.09,-223.8 -279.8,-302.52 -97.71,-71.38 -214.96,-58.96 -327.83,-42.51 -85.24,12.46 -166.97,35.97 -255.09,34.74 -81.21,-1.15 -139.21,-37.2 -210.69,-61.4 l 62.16,-281.53" /></g></g><g
         id="g548"><g
           clip-path="url(#clipPath554)"
           id="g550"><path
             id="path566"
             style="fill:url(#linearGradient564);fill-opacity:1;fill-rule:nonzero;stroke:none"
             d="m 6751.15,2658.15 c 37.34,-9.06 82.5,14.88 84.9,23.65 57.35,-45.19 106.63,-74.02 166.15,-114.67 6,-61.51 -4.41,-75.86 -60.88,-67.05 -58.87,9.16 -100.57,68.7 -140.62,110.75" /></g></g><path
         id="path568"
         style="fill:none;stroke:#100f0d;stroke-width:13.55980015;stroke-linecap:butt;stroke-linejoin:miter;stroke-miterlimit:10;stroke-dasharray:none;stroke-opacity:1"
         d="m 4919.79,1669.08 c 85.24,36 167.74,109.2 255.07,164.72 75.31,47.9 196.85,141.1 292.58,131.64 93.53,-9.23 124.66,-130.38 170.37,-192.41 26.11,-35.41 54.69,-69.04 101.23,-73.81 115.92,-11.79 212.84,109.37 273.95,192.01 82.02,110.94 377.81,738.68 636.74,767.17 96.73,13.66 144.63,-29.56 199.6,-99.28 43.92,-55.67 155.53,-101.34 154.56,1.46 0,0 -825.91,595.58 -1132.06,1020.17 0,0 -531.94,620.63 -556.09,913.16 0,0 -7.77,301.42 -250.45,210.77 0,0 -137.95,-26.25 -255.95,-364.8 0,0 -56.55,-278.36 -133.57,-169.85 0,0 -141.88,120.92 -184.26,153.17 0,0 -166.17,155.5 -374.66,-31.35 0,0 -416.32,-466.89 -582.21,-131.6 0,0 -98.36,245.38 -397.43,74.82 0,0 -298.28,-273.04 -678.64,-282.51 0,0 -151.11,11.18 -227.98,64.86 0,0 -351.86,101.75 -429.25,8.25 0,0 -54.96,90.85 -57.3,181.28 0,0 -39.61,126.32 -168.88,43.93 0,0 -190.8,-101.75 -264.93,-194.41 0,0 -184.86,-124.74 -251.04,-71.79 l -58.88,137.68 c 0,0 -41.294,60.53 -174.814,-5.45 0,0 -53.68,-76.86 -134.683,-20.75 0,0 -262.301,112.02 -421.797,-106.52 0,0 661.172,-1748 941.044,-3736.64 0,0 71.36,347.512 398.11,410.832 0,0 279.33,30.098 350.27,-0.613 0,0 393.26,-31.547 665.16,325.722 0,0 658.36,786.099 1135.28,783.139 0,0 124.51,-48.39 201.71,-198.26 0,0 164.44,-53.83 365.19,253.55 0,0 209.64,327.19 296.68,125.59 0,0 50.4,-358.11 300.61,-283.03" /><g
         id="g570"><g
           clip-path="url(#clipPath576)"
           id="g572"><path
             id="path590"
             style="fill:url(#linearGradient588);fill-opacity:1;fill-rule:nonzero;stroke:none"
             d="m 1786.83,3986.92 c -5.73,103.56 259.61,83.39 410.26,38.19 121.31,-36.38 178.03,-92.92 345.54,-63.69 0,0 484.34,-1089.86 686.37,-1275.78 0,0 -1395.09,449 -1442.17,1301.28" /></g></g><g
         id="g592"><g
           clip-path="url(#clipPath598)"
           id="g594"><path
             id="path610"
             style="fill:url(#linearGradient608);fill-opacity:1;fill-rule:nonzero;stroke:none"
             d="m 1240.34,3409.42 c -14.22,-119.7 92.39,-246.11 148.45,-343.74 36.67,-63.86 73.51,-124.64 117.29,-184.02 62.73,-85.03 125.28,-174.35 207.13,-241.82 83.16,-68.52 189.38,-85.37 285.14,-128.48 93.13,-41.93 181.25,-88.72 274.4,-131.89 74.83,-34.69 143.95,-53.1 224.14,-40.45 177.59,27.98 247.74,132.53 378.04,235.39 90.56,71.48 179.34,112.16 285.89,140.32 0,0 -1288.34,904.43 -1411.12,1470.27 -56.88,262.17 -413.97,-115.09 -482.5,-157.14 -45.57,-27.96 -97.61,-49.65 -154.19,-52.74 -78.08,-4.28 -131.905,-19 -209.967,-36.57" /></g></g><g
         id="g612"><g
           clip-path="url(#clipPath618)"
           id="g614"><path
             id="path628"
             style="fill:url(#linearGradient626);fill-opacity:1;fill-rule:nonzero;stroke:none"
             d="m 2167.41,2430.9 c 28.62,-15.54 -123.6,37.38 -216.32,10.69 -79.12,-22.77 -137.55,-70.15 -195.02,-125.62 -115.07,-111 -224.37,-243.26 -399.53,-225.89 -126.62,12.55 -416.868,77.38 -498.696,-65.43 0,0 -545.625,1906.11 -588.828,1964.99 0,0 107.429,144.41 263.152,137.93 0,0 104.18,-5.78 180.137,-46.86 0,0 25.429,-26.13 77.793,6.06 0,0 106.734,92.91 187.066,52.96 l 23.146,-17.37 c 0,0 280.27,-669.89 454.35,-928.38 0,0 346.33,-564.15 712.75,-763.08" /></g></g><path
         id="path630"
         style="fill:#ffffff;fill-opacity:1;fill-rule:nonzero;stroke:none"
         d="m 511.559,4026.55 -8.614,-93.25 -73.691,-40.02 78.566,-24.06 -6.496,-83.38 59.789,66.78 87.461,-40.44 -51.039,80.18 46.664,63.4 -85.492,-3.4 -47.148,74.19" /><path
         id="path632"
         style="fill:#ffffff;fill-opacity:1;fill-rule:nonzero;stroke:none"
         d="m 643.633,3596.17 -8.61,-93.24 -73.683,-40.03 78.558,-24.07 -6.484,-83.36 59.785,66.78 87.461,-40.45 -51.043,80.19 46.66,63.38 -85.484,-3.39 -47.16,74.19" /><path
         id="path634"
         style="fill:#ffffff;fill-opacity:1;fill-rule:nonzero;stroke:none"
         d="m 775.645,3175.1 -8.602,-93.24 -73.691,-40.04 78.558,-24.05 -6.488,-83.38 59.773,66.81 87.473,-40.46 -51.035,80.18 46.664,63.38 -85.492,-3.38 -47.16,74.18" /><path
         id="path636"
         style="fill:#ffffff;fill-opacity:1;fill-rule:nonzero;stroke:none"
         d="m 893.613,2799.42 -8.601,-93.24 -73.699,-40.02 78.558,-24.06 -6.488,-83.39 59.785,66.79 87.462,-40.43 -51.025,80.17 46.645,63.39 -85.484,-3.38 -47.153,74.17" /><path
         id="path638"
         style="fill:#ffffff;fill-opacity:1;fill-rule:nonzero;stroke:none"
         d="m 998.238,2448.31 -8.605,-93.23 -73.699,-40.02 78.57,-24.07 -6.496,-83.38 59.782,66.8 87.46,-40.45 -51.03,80.18 46.66,63.39 -85.48,-3.4 -47.162,74.18" /><path
         id="path640"
         style="fill:#ffffff;fill-opacity:1;fill-rule:nonzero;stroke:none"
         d="m 810.902,3789.06 -17.129,-82.7 -75.945,-26.85 69.809,-42.61 -14.254,-74.06 60.344,53.8 92.91,-40.78 -56.246,72.72 52.746,62.91 -81.492,-5.21 -30.743,82.78" /><path
         id="path642"
         style="fill:#ffffff;fill-opacity:1;fill-rule:nonzero;stroke:none"
         d="m 945.605,3375.69 -17.136,-82.71 -75.946,-26.85 69.813,-42.62 -14.254,-74.05 60.332,53.81 92.906,-40.78 -56.25,72.72 52.76,62.91 -81.486,-5.22 -30.739,82.79" /><path
         id="path644"
         style="fill:#ffffff;fill-opacity:1;fill-rule:nonzero;stroke:none"
         d="m 1080.41,2948.34 -17.14,-82.68 -75.946,-26.86 69.816,-42.61 -14.25,-74.08 60.32,53.81 92.92,-40.79 -56.25,72.72 52.76,62.93 -81.5,-5.22 -30.73,82.78" /><path
         id="path646"
         style="fill:#ffffff;fill-opacity:1;fill-rule:nonzero;stroke:none"
         d="m 1194.87,2599.78 -17.13,-82.71 -75.94,-26.83 69.81,-42.63 -14.26,-74.05 60.34,53.8 92.91,-40.78 -56.25,72.71 52.75,62.91 -81.48,-5.22 -30.75,82.8" /><path
         id="path648"
         style="fill:#ffffff;fill-opacity:1;fill-rule:nonzero;stroke:none"
         d="m 1440.58,2467.98 11.48,-86.91 -72.63,-35.09 72.46,-31.54 -5.33,-74.84 54.77,65.41 91.14,-6.74 -59.09,57.1 25.7,81.34 -70.05,-42.57 -48.45,73.84" /><path
         id="path650"
         style="fill:#ffffff;fill-opacity:1;fill-rule:nonzero;stroke:none"
         d="m 1565.52,2761.62 11.48,-86.9 -72.64,-35.08 72.47,-31.54 -5.34,-74.86 54.78,65.41 91.14,-6.73 -59.09,57.1 25.69,81.32 -70.04,-42.56 -48.45,73.84" /><path
         id="path652"
         style="fill:#ffffff;fill-opacity:1;fill-rule:nonzero;stroke:none"
         d="m 1466.4,3109.48 11.48,-86.89 -72.63,-35.11 72.46,-31.53 -5.33,-74.82 54.78,65.38 91.13,-6.73 -59.09,57.11 14.02,47.38 -58.37,-8.63 -48.45,73.84" /><path
         id="path654"
         style="fill:#ffffff;fill-opacity:1;fill-rule:nonzero;stroke:none"
         d="m 1330.45,2822.31 11.47,-86.87 -72.62,-35.11 72.45,-31.53 -5.32,-74.83 54.77,65.4 91.13,-6.73 -59.08,57.09 25.69,81.33 -70.04,-42.58 -48.45,73.83" /><path
         id="path656"
         style="fill:#ffffff;fill-opacity:1;fill-rule:nonzero;stroke:none"
         d="m 1193.78,3207.17 11.47,-86.89 -72.61,-35.1 72.45,-31.53 -5.34,-74.83 54.78,65.4 91.13,-6.73 -59.08,57.09 25.7,81.34 -70.05,-42.57 -48.45,73.82" /><path
         id="path658"
         style="fill:#ffffff;fill-opacity:1;fill-rule:nonzero;stroke:none"
         d="m 1052.59,3609.54 11.48,-86.91 -72.632,-35.08 72.462,-31.53 -5.33,-74.85 54.78,65.39 91.13,-6.72 -59.08,57.1 25.69,81.33 -70.04,-42.57 -48.46,73.84" /><path
         id="path660"
         style="fill:#ffffff;fill-opacity:1;fill-rule:nonzero;stroke:none"
         d="m 1267.17,3935.66 11.48,-86.9 -72.62,-35.09 72.45,-31.53 -5.34,-74.84 54.78,65.4 91.14,-6.74 -59.09,57.11 25.7,81.32 -70.04,-42.56 -48.46,73.83" /><path
         id="path662"
         style="fill:#ffffff;fill-opacity:1;fill-rule:nonzero;stroke:none"
         d="m 1508.21,3863.66 15.39,-77.72 -67.55,-54.78 67.37,-11.85 27.71,-94.31 31.7,85.2 85.55,-5.92 -63.46,55.97 22.45,75.81 -66.8,-37.05 -52.36,64.65" /><path
         id="path664"
         style="fill:#ffffff;fill-opacity:1;fill-rule:nonzero;stroke:none"
         d="m 1762.63,3782.28 15.39,-77.72 -67.56,-54.78 67.38,-11.84 27.7,-94.33 31.7,85.21 85.55,-5.93 -63.45,55.98 22.43,75.81 -66.78,-37.06 -52.36,64.66" /><path
         id="path666"
         style="fill:#ffffff;fill-opacity:1;fill-rule:nonzero;stroke:none"
         d="m 1657.79,4161.34 -2.26,-63.6 -54.49,-42.08 47.95,-7.29 5.83,-74.52 41.74,61.67 77.99,-19.1 -55.42,57.87 40.93,43.42 -60.77,-8.67 -41.5,52.3" /><path
         id="path668"
         style="fill:#ffffff;fill-opacity:1;fill-rule:nonzero;stroke:none"
         d="m 2046.61,3652.7 -2.26,-63.6 -62.26,-30.08 55.72,-19.3 8.08,-83.26 39.49,70.43 74.73,-24.6 -52.16,63.36 30.06,31.28 -49.9,3.46 -41.5,52.31" /><path
         id="path670"
         style="fill:#ffffff;fill-opacity:1;fill-rule:nonzero;stroke:none"
         d="m 2230.13,3788.57 -9.17,-69.86 -71.37,-6.94 64.83,-42.43 8.09,-83.25 39.48,70.41 90.69,-53.37 -55.42,79.07 35.3,44.12 -67.84,3.69 -34.59,58.56" /><path
         id="path672"
         style="fill:#ffffff;fill-opacity:1;fill-rule:nonzero;stroke:none"
         d="m 2537.9,3608.92 -9.17,-69.86 -71.37,-6.94 64.83,-42.44 8.08,-83.25 39.49,70.43 90.68,-53.38 -55.42,79.08 35.3,44.13 -67.83,3.67 -34.59,58.56" /><path
         id="path674"
         style="fill:#ffffff;fill-opacity:1;fill-rule:nonzero;stroke:none"
         d="m 2673.58,3282.18 -9.17,-69.86 -71.37,-6.94 64.83,-42.43 8.1,-83.27 39.47,70.41 90.68,-53.33 -55.41,79.04 35.31,44.11 -67.84,3.7 -34.6,58.57" /><path
         id="path676"
         style="fill:#ffffff;fill-opacity:1;fill-rule:nonzero;stroke:none"
         d="m 2380.9,3927.85 -25.69,-60.12 -60.35,-13.44 53.82,-35.93 8.08,-83.27 39.49,70.42 90.68,-53.36 -56.47,74.13 41.94,36.49 -73.91,9.13 -17.59,55.95" /><path
         id="path678"
         style="fill:#ffffff;fill-opacity:1;fill-rule:nonzero;stroke:none"
         d="m 1415.35,3551.45 11.48,-86.9 -72.63,-35.1 72.45,-31.53 -5.32,-74.83 54.77,65.4 91.14,-6.74 -59.09,57.1 25.69,81.34 -70.04,-42.58 -48.45,73.84" /><path
         id="path680"
         style="fill:#ffffff;fill-opacity:1;fill-rule:nonzero;stroke:none"
         d="m 1663.1,3462.5 10.52,-85.98 -63.32,-35.01 67.52,-30.46 10.13,-89.53 44.25,79.01 92.27,-11.1 -60.22,61.47 16.31,90.57 -63.82,-42.14 -53.64,63.17" /><path
         id="path682"
         style="fill:#ffffff;fill-opacity:1;fill-rule:nonzero;stroke:none"
         d="m 1813.54,3069.55 10.51,-86 -63.31,-35.01 67.5,-30.49 10.15,-89.52 44.25,79.03 92.27,-11.11 -60.22,61.47 16.3,90.58 -63.81,-42.13 -53.64,63.18" /><path
         id="path684"
         style="fill:#ffffff;fill-opacity:1;fill-rule:nonzero;stroke:none"
         d="m 1905.36,3391.98 12.64,-76.09 -51.67,-53.02 61.31,-6.41 16.7,-87.83 37.69,77.34 72.99,0.25 -40.95,50.13 16.32,90.56 -63.83,-42.17 -61.2,47.24" /><path
         id="path686"
         style="fill:#ffffff;fill-opacity:1;fill-rule:nonzero;stroke:none"
         d="m 2071.19,2993.65 12.64,-76.1 -51.68,-53 61.31,-6.41 16.7,-87.83 37.69,77.33 72.99,0.24 -40.94,50.13 16.31,90.57 -63.82,-42.15 -61.2,47.22" /><path
         id="path688"
         style="fill:#ffffff;fill-opacity:1;fill-rule:nonzero;stroke:none"
         d="m 2173.96,3318.92 2.25,-81.08 -57.8,-38.28 67.44,-21.16 16.69,-87.81 37.7,77.31 85.71,-12.81 -53.66,63.18 27.46,65.44 -74.96,-17 -50.83,52.21" /><path
         id="path690"
         style="fill:#ffffff;fill-opacity:1;fill-rule:nonzero;stroke:none"
         d="m 2346.29,2931.62 2.25,-81.12 -57.81,-38.25 67.45,-21.17 16.68,-87.83 37.71,77.33 85.7,-12.79 -53.66,63.16 27.47,65.45 -74.97,-17.03 -50.82,52.25" /><path
         id="path692"
         style="fill:#ffffff;fill-opacity:1;fill-rule:nonzero;stroke:none"
         d="m 2623.15,2853.71 2.25,-81.12 -56.12,-44.83 65.75,-14.59 16.7,-87.84 37.7,77.33 85.7,-12.81 -53.65,63.18 15.3,76.31 -62.81,-27.89 -50.82,52.26" /><path
         id="path694"
         style="fill:#ffffff;fill-opacity:1;fill-rule:nonzero;stroke:none"
         d="m 2256.02,2621.24 2.26,-81.1 -72.16,-27.96 76.91,-39.75 -1.52,-71.51 55.92,61.01 73.61,-11.25 -41.57,61.64 28.59,61.05 -76.09,-12.66 -45.95,60.53" /><path
         id="path696"
         style="fill:#ffffff;fill-opacity:1;fill-rule:nonzero;stroke:none"
         d="m 1832.8,2680.54 2.37,-66.91 -51.09,-22.78 49.97,-27.97 1.84,-69.61 39.36,57.91 70.32,-14.68 -42.29,51.36 18.58,68.65 -51.95,-28.19 -37.11,52.22" /><path
         id="path698"
         style="fill:#ffffff;fill-opacity:1;fill-rule:nonzero;stroke:none"
         d="m 928.762,4035.05 11.48,-86.89 -72.629,-35.1 72.453,-31.54 -5.324,-74.83 54.778,65.39 91.13,-6.72 -59.08,57.1 25.69,81.33 -70.037,-42.57 -48.461,73.83" /><path
         id="path700"
         style="fill:#ffffff;fill-opacity:1;fill-rule:nonzero;stroke:none"
         d="m 1311.52,3454.62 -0.42,-52.61 -65.96,-29.28 71.31,-25.36 10.06,-79.68 25.99,41.72 51.99,-25.09 c 0,0 -91.54,144.42 -92.97,170.3" /><path
         id="path702"
         style="fill:#ffffff;fill-opacity:1;fill-rule:nonzero;stroke:none"
         d="m 1523.83,3106.8 43.34,-5.16 -9.81,65.16 45.95,-60.49 70.11,8.75 -43.84,-74.32 57.45,-59.86 -95.08,33.79 c 0,0 -52.59,68.13 -68.12,92.13" /><path
         id="path704"
         style="fill:#ffffff;fill-opacity:1;fill-rule:nonzero;stroke:none"
         d="m 1970.53,2605.91 11.87,-45.96 25.05,20.47 76.39,-24.64 -43.7,51.74 44.54,53.53 -65.15,-9.82 -41.01,59.42 -6.64,-64.71 -41.5,-20.06" /><path
         id="path706"
         style="fill:#ffffff;fill-opacity:1;fill-rule:nonzero;stroke:none"
         d="m 2468.59,3208.25 9.9,-74.47 -72.21,-18.63 69.31,-33.46 8.27,-77.22 42.2,71.57 74.13,-15.89 -41.52,52.32 20.96,54.44 -58.51,-17.47 -52.53,58.81" /><path
         id="path708"
         style="fill:#ffffff;fill-opacity:1;fill-rule:nonzero;stroke:none"
         d="m 1890.45,3910.96 69.89,-35.64 63.32,35.01 -26.9,-67.62 52.52,-58.81 -77.36,10.39 -81.47,116.67" /><path
         id="path710"
         style="fill:#ffffff;fill-opacity:1;fill-rule:nonzero;stroke:none"
         d="m 2325.37,3374.37 46.02,2.52 -4.3,61.91 50.33,-59.36 76.17,3.33 -56.12,-44.83 49.28,-64.32 -80.27,30.65 -81.11,70.1" /></g></g></svg>